<svg width="25" height="26" viewBox="0 0 25 26" fill="none" xmlns="http://www.w3.org/2000/svg">
<path d="M6.94444 19.6944C7.33796 19.6944 7.66782 19.5613 7.93403 19.2951C8.20023 19.0289 8.33333 18.6991 8.33333 18.3056C8.33333 17.912 8.20023 17.5822 7.93403 17.316C7.66782 17.0498 7.33796 16.9167 6.94444 16.9167C6.55093 16.9167 6.22107 17.0498 5.95486 17.316C5.68866 17.5822 5.55556 17.912 5.55556 18.3056C5.55556 18.6991 5.68866 19.0289 5.95486 19.2951C6.22107 19.5613 6.55093 19.6944 6.94444 19.6944ZM6.94444 14.1389C7.33796 14.1389 7.66782 14.0058 7.93403 13.7396C8.20023 13.4734 8.33333 13.1435 8.33333 12.75C8.33333 12.3565 8.20023 12.0266 7.93403 11.7604C7.66782 11.4942 7.33796 11.3611 6.94444 11.3611C6.55093 11.3611 6.22107 11.4942 5.95486 11.7604C5.68866 12.0266 5.55556 12.3565 5.55556 12.75C5.55556 13.1435 5.68866 13.4734 5.95486 13.7396C6.22107 14.0058 6.55093 14.1389 6.94444 14.1389ZM6.94444 8.58333C7.33796 8.58333 7.66782 8.45023 7.93403 8.18403C8.20023 7.91782 8.33333 7.58796 8.33333 7.19444C8.33333 6.80093 8.20023 6.47107 7.93403 6.20486C7.66782 5.93866 7.33796 5.80556 6.94444 5.80556C6.55093 5.80556 6.22107 5.93866 5.95486 6.20486C5.68866 6.47107 5.55556 6.80093 5.55556 7.19444C5.55556 7.58796 5.68866 7.91782 5.95486 8.18403C6.22107 8.45023 6.55093 8.58333 6.94444 8.58333ZM11.1111 19.6944H19.4444V16.9167H11.1111V19.6944ZM11.1111 14.1389H19.4444V11.3611H11.1111V14.1389ZM11.1111 8.58333H19.4444V5.80556H11.1111V8.58333ZM2.77778 25.25C2.01389 25.25 1.35995 24.978 0.815972 24.434C0.271991 23.89 0 23.2361 0 22.4722V3.02778C0 2.26389 0.271991 1.60995 0.815972 1.06597C1.35995 0.521991 2.01389 0.25 2.77778 0.25H22.2222C22.9861 0.25 23.64 0.521991 24.184 1.06597C24.728 1.60995 25 2.26389 25 3.02778V22.4722C25 23.2361 24.728 23.89 24.184 24.434C23.64 24.978 22.9861 25.25 22.2222 25.25H2.77778ZM2.77778 22.4722H22.2222V3.02778H2.77778V22.4722Z" fill="#C6EC2F"/>
</svg>
