<?xml version="1.0" encoding="UTF-8"?>
<svg id="Layer_1" xmlns="http://www.w3.org/2000/svg" version="1.1" viewBox="0 0 25 26">
  <!-- Generator: Adobe Illustrator 29.0.0, SVG Export Plug-In . SVG Version: 2.1.0 Build 186)  -->
  <defs>
    <style>
      .st0 {
        fill: #94da00;
      }
    </style>
  </defs>
  <path class="st0" d="M6.9,19.7c.4,0,.7-.1,1-.4.3-.3.4-.6.4-1s-.1-.7-.4-1c-.3-.3-.6-.4-1-.4s-.7.1-1,.4c-.3.3-.4.6-.4,1s.1.7.4,1c.3.3.6.4,1,.4ZM6.9,14.1c.4,0,.7-.1,1-.4.3-.3.4-.6.4-1s-.1-.7-.4-1c-.3-.3-.6-.4-1-.4s-.7.1-1,.4c-.3.3-.4.6-.4,1s.1.7.4,1c.3.3.6.4,1,.4ZM6.9,8.6c.4,0,.7-.1,1-.4.3-.3.4-.6.4-1s-.1-.7-.4-1c-.3-.3-.6-.4-1-.4s-.7.1-1,.4c-.3.3-.4.6-.4,1s.1.7.4,1c.3.3.6.4,1,.4ZM11.1,19.7h8.3v-2.8h-8.3v2.8ZM11.1,14.1h8.3v-2.8h-8.3v2.8ZM11.1,8.6h8.3v-2.8h-8.3v2.8ZM2.8,25.2c-.8,0-1.4-.3-2-.8-.5-.5-.8-1.2-.8-2V3c0-.8.3-1.4.8-2,.5-.5,1.2-.8,2-.8h19.4c.8,0,1.4.3,2,.8.5.5.8,1.2.8,2v19.4c0,.8-.3,1.4-.8,2s-1.2.8-2,.8H2.8ZM2.8,22.5h19.4V3H2.8v19.4Z"/>
</svg>