<svg width="25" height="26" viewBox="0 0 25 26" fill="none" xmlns="http://www.w3.org/2000/svg">
<path d="M23.0556 25.25L14.3056 16.5C13.6111 17.0556 12.8125 17.4954 11.9097 17.8194C11.0069 18.1435 10.0463 18.3056 9.02778 18.3056C6.50463 18.3056 4.36921 17.4317 2.62153 15.684C0.873843 13.9363 0 11.8009 0 9.27778C0 6.75463 0.873843 4.61921 2.62153 2.87153C4.36921 1.12384 6.50463 0.25 9.02778 0.25C11.5509 0.25 13.6863 1.12384 15.434 2.87153C17.1817 4.61921 18.0556 6.75463 18.0556 9.27778C18.0556 10.2963 17.8935 11.2569 17.5694 12.1597C17.2454 13.0625 16.8056 13.8611 16.25 14.5556L25 23.3056L23.0556 25.25ZM9.02778 15.5278C10.7639 15.5278 12.2396 14.9201 13.4549 13.7049C14.6701 12.4896 15.2778 11.0139 15.2778 9.27778C15.2778 7.54167 14.6701 6.06597 13.4549 4.85069C12.2396 3.63542 10.7639 3.02778 9.02778 3.02778C7.29167 3.02778 5.81597 3.63542 4.60069 4.85069C3.38542 6.06597 2.77778 7.54167 2.77778 9.27778C2.77778 11.0139 3.38542 12.4896 4.60069 13.7049C5.81597 14.9201 7.29167 15.5278 9.02778 15.5278Z" fill="black"/>
</svg>
