<?xml version="1.0" encoding="UTF-8"?>
<svg id="Layer_1" xmlns="http://www.w3.org/2000/svg" version="1.1" viewBox="0 0 25 26">
  <!-- Generator: Adobe Illustrator 29.0.0, SVG Export Plug-In . SVG Version: 2.1.0 Build 186)  -->
  <defs>
    <style>
      .st0 {
        fill: #fff;
      }
    </style>
  </defs>
  <path class="st0" d="M23.1,25.2l-8.7-8.8c-.7.6-1.5,1-2.4,1.3-.9.3-1.9.5-2.9.5-2.5,0-4.7-.9-6.4-2.6-1.7-1.7-2.6-3.9-2.6-6.4S.9,4.6,2.6,2.9C4.4,1.1,6.5.2,9,.2s4.7.9,6.4,2.6c1.7,1.7,2.6,3.9,2.6,6.4s-.2,2-.5,2.9c-.3.9-.8,1.7-1.3,2.4l8.8,8.7-1.9,1.9ZM9,15.5c1.7,0,3.2-.6,4.4-1.8,1.2-1.2,1.8-2.7,1.8-4.4s-.6-3.2-1.8-4.4c-1.2-1.2-2.7-1.8-4.4-1.8s-3.2.6-4.4,1.8c-1.2,1.2-1.8,2.7-1.8,4.4s.6,3.2,1.8,4.4c1.2,1.2,2.7,1.8,4.4,1.8Z"/>
</svg>