<?xml version="1.0" encoding="UTF-8"?>
<svg id="Layer_1" xmlns="http://www.w3.org/2000/svg" version="1.1" viewBox="0 0 23 26">
  <!-- Generator: Adobe Illustrator 29.0.0, SVG Export Plug-In . SVG Version: 2.1.0 Build 186)  -->
  <defs>
    <style>
      .st0 {
        fill: #fff;
      }
    </style>
  </defs>
  <path class="st0" d="M2.8,25.2c-.7,0-1.3-.2-1.8-.7-.5-.5-.7-1.1-.7-1.8V5.2c0-.7.2-1.3.7-1.8.5-.5,1.1-.7,1.8-.7h1.2V.2h2.5v2.5h10V.2h2.5v2.5h1.2c.7,0,1.3.2,1.8.7.5.5.7,1.1.7,1.8v17.5c0,.7-.2,1.3-.7,1.8-.5.5-1.1.7-1.8.7H2.8ZM2.8,22.8h17.5v-12.5H2.8v12.5ZM2.8,7.8h17.5v-2.5H2.8v2.5Z"/>
</svg>