<svg width="23" height="26" viewBox="0 0 23 26" fill="none" xmlns="http://www.w3.org/2000/svg">
<path d="M2.75 25.25C2.0625 25.25 1.47396 25.0052 0.984375 24.5156C0.494792 24.026 0.25 23.4375 0.25 22.75V5.25C0.25 4.5625 0.494792 3.97396 0.984375 3.48438C1.47396 2.99479 2.0625 2.75 2.75 2.75H4V0.25H6.5V2.75H16.5V0.25H19V2.75H20.25C20.9375 2.75 21.526 2.99479 22.0156 3.48438C22.5052 3.97396 22.75 4.5625 22.75 5.25V22.75C22.75 23.4375 22.5052 24.026 22.0156 24.5156C21.526 25.0052 20.9375 25.25 20.25 25.25H2.75ZM2.75 22.75H20.25V10.25H2.75V22.75ZM2.75 7.75H20.25V5.25H2.75V7.75Z" fill="black"/>
</svg>
