<?xml version="1.0" encoding="UTF-8"?>
<svg id="Layer_1" xmlns="http://www.w3.org/2000/svg" version="1.1" viewBox="0 0 21 13">
  <!-- Generator: Adobe Illustrator 29.0.0, SVG Export Plug-In . SVG Version: 2.1.0 Build 186)  -->
  <path d="M2.8,7.5c.6,0,1.1.5,1.1,1.1v2.3c0,.6-.5,1.2-1.1,1.2h-1.1c-.6,0-1.1-.5-1.1-1.2v-2.3c0-.6.5-1.1,1.1-1.1h1.1ZM8.2,5.1c.6,0,1.1.5,1.1,1.2v4.7c0,.6-.5,1.2-1.1,1.2h-1.1c-.6,0-1.1-.5-1.1-1.2v-4.7c0-.6.5-1.2,1.1-1.2h1.1ZM13.8,2.5c.6,0,1.1.5,1.1,1.2v7.3c0,.6-.5,1.2-1.1,1.2h-1.1c-.6,0-1.1-.5-1.1-1.2V3.7c0-.6.5-1.2,1.1-1.2h1.1ZM19.2.1c.6,0,1.1.5,1.1,1.1v9.8c0,.6-.5,1.1-1.1,1.1h-1.1c-.6,0-1.1-.5-1.1-1.1V1.2c0-.6.5-1.1,1.1-1.1h1.1Z"/>
</svg>