<svg width="21" height="13" viewBox="0 0 21 13" fill="none" xmlns="http://www.w3.org/2000/svg">
<path d="M2.78931 7.50039C3.3933 7.50044 3.88296 8.0148 3.88306 8.64981V10.9496C3.88306 11.5847 3.39336 12.0999 2.78931 12.1H1.69556C1.09146 12.1 0.601807 11.5847 0.601807 10.9496V8.64981C0.601907 8.01477 1.09152 7.50039 1.69556 7.50039H2.78931ZM8.22388 5.1C8.82797 5.1 9.31763 5.62266 9.31763 6.26699V10.933C9.31763 11.5773 8.82797 12.1 8.22388 12.1H7.13013C6.5261 12.0999 6.03638 11.5773 6.03638 10.933V6.26699C6.03638 5.62271 6.5261 5.10008 7.13013 5.1H8.22388ZM13.762 2.50039C14.3658 2.50067 14.8556 3.01581 14.8557 3.65176V10.9477C14.8557 11.5837 14.3658 12.0997 13.762 12.1H12.6672C12.0633 12.0998 11.5735 11.5837 11.5735 10.9477V3.65176C11.5736 3.01579 12.0634 2.50063 12.6672 2.50039H13.762ZM19.1965 0.1C19.8005 0.100102 20.2903 0.603743 20.2903 1.225V10.975C20.2903 11.5963 19.8005 12.0999 19.1965 12.1H18.1028C17.4987 12.1 17.009 11.5963 17.009 10.975V1.225C17.009 0.60368 17.4987 0.1 18.1028 0.1H19.1965Z" fill="white"/>
</svg>
