<svg width="25" height="21" viewBox="0 0 25 21" fill="none" xmlns="http://www.w3.org/2000/svg">
<path d="M2.5 20.5C1.8125 20.5 1.22396 20.2552 0.734375 19.7656C0.244792 19.276 0 18.6875 0 18V3C0 2.3125 0.244792 1.72396 0.734375 1.23438C1.22396 0.744792 1.8125 0.5 2.5 0.5H22.5C23.1875 0.5 23.776 0.744792 24.2656 1.23438C24.7552 1.72396 25 2.3125 25 3V18C25 18.6875 24.7552 19.276 24.2656 19.7656C23.776 20.2552 23.1875 20.5 22.5 20.5H2.5ZM12.5 11.75L2.5 5.5V18H22.5V5.5L12.5 11.75ZM12.5 9.25L22.5 3H2.5L12.5 9.25ZM2.5 5.5V3V18V5.5Z" fill="black"/>
</svg>
