<?xml version="1.0" encoding="UTF-8"?>
<svg id="Layer_1" xmlns="http://www.w3.org/2000/svg" version="1.1" viewBox="0 0 25 21">
  <!-- Generator: Adobe Illustrator 29.0.0, SVG Export Plug-In . SVG Version: 2.1.0 Build 186)  -->
  <defs>
    <style>
      .st0 {
        fill: #fff;
      }
    </style>
  </defs>
  <path class="st0" d="M2.5,20.5c-.7,0-1.3-.2-1.8-.7-.5-.5-.7-1.1-.7-1.8V3c0-.7.2-1.3.7-1.8.5-.5,1.1-.7,1.8-.7h20c.7,0,1.3.2,1.8.7.5.5.7,1.1.7,1.8v15c0,.7-.2,1.3-.7,1.8-.5.5-1.1.7-1.8.7H2.5ZM12.5,11.8L2.5,5.5v12.5h20V5.5l-10,6.2ZM12.5,9.2l10-6.2H2.5l10,6.2ZM2.5,5.5v-2.5,15V5.5Z"/>
</svg>