<?xml version="1.0" encoding="UTF-8"?>
<svg id="Layer_1" xmlns="http://www.w3.org/2000/svg" version="1.1" viewBox="0 0 25 26">
  <!-- Generator: Adobe Illustrator 29.0.0, SVG Export Plug-In . SVG Version: 2.1.0 Build 186)  -->
  <defs>
    <style>
      .st0 {
        fill: #fff;
      }
    </style>
  </defs>
  <path class="st0" d="M12.5,12.8c-1.7,0-3.2-.6-4.4-1.8-1.2-1.2-1.8-2.7-1.8-4.4s.6-3.2,1.8-4.4c1.2-1.2,2.7-1.8,4.4-1.8s3.2.6,4.4,1.8c1.2,1.2,1.8,2.7,1.8,4.4s-.6,3.2-1.8,4.4c-1.2,1.2-2.7,1.8-4.4,1.8ZM0,25.2v-4.4c0-.9.2-1.7.7-2.4.5-.7,1.1-1.3,1.8-1.7,1.6-.8,3.3-1.4,4.9-1.8,1.7-.4,3.4-.6,5.1-.6s3.4.2,5.1.6c1.7.4,3.3,1,4.9,1.8.8.4,1.4,1,1.8,1.7.5.7.7,1.6.7,2.4v4.4H0ZM3.1,22.1h18.8v-1.2c0-.3,0-.5-.2-.8-.1-.2-.3-.4-.6-.5-1.4-.7-2.8-1.2-4.3-1.6-1.4-.4-2.9-.5-4.3-.5s-2.9.2-4.3.5c-1.4.4-2.9.9-4.3,1.6-.2.1-.4.3-.6.5-.1.2-.2.5-.2.8v1.2ZM12.5,9.6c.9,0,1.6-.3,2.2-.9.6-.6.9-1.3.9-2.2s-.3-1.6-.9-2.2c-.6-.6-1.3-.9-2.2-.9s-1.6.3-2.2.9c-.6.6-.9,1.3-.9,2.2s.3,1.6.9,2.2c.6.6,1.3.9,2.2.9Z"/>
</svg>