<svg width="25" height="26" viewBox="0 0 25 26" fill="none" xmlns="http://www.w3.org/2000/svg">
<path d="M12.5 12.75C10.7812 12.75 9.3099 12.138 8.08594 10.9141C6.86198 9.6901 6.25 8.21875 6.25 6.5C6.25 4.78125 6.86198 3.3099 8.08594 2.08594C9.3099 0.861979 10.7812 0.25 12.5 0.25C14.2188 0.25 15.6901 0.861979 16.9141 2.08594C18.138 3.3099 18.75 4.78125 18.75 6.5C18.75 8.21875 18.138 9.6901 16.9141 10.9141C15.6901 12.138 14.2188 12.75 12.5 12.75ZM0 25.25V20.875C0 19.9896 0.227865 19.1758 0.683594 18.4336C1.13932 17.6914 1.74479 17.125 2.5 16.7344C4.11458 15.9271 5.75521 15.3216 7.42188 14.918C9.08854 14.5143 10.7812 14.3125 12.5 14.3125C14.2188 14.3125 15.9115 14.5143 17.5781 14.918C19.2448 15.3216 20.8854 15.9271 22.5 16.7344C23.2552 17.125 23.8607 17.6914 24.3164 18.4336C24.7721 19.1758 25 19.9896 25 20.875V25.25H0ZM3.125 22.125H21.875V20.875C21.875 20.5885 21.8034 20.3281 21.6602 20.0938C21.5169 19.8594 21.3281 19.6771 21.0938 19.5469C19.6875 18.8438 18.2682 18.3164 16.8359 17.9648C15.4036 17.6133 13.9583 17.4375 12.5 17.4375C11.0417 17.4375 9.59635 17.6133 8.16406 17.9648C6.73177 18.3164 5.3125 18.8438 3.90625 19.5469C3.67188 19.6771 3.48307 19.8594 3.33984 20.0938C3.19661 20.3281 3.125 20.5885 3.125 20.875V22.125ZM12.5 9.625C13.3594 9.625 14.0951 9.31901 14.707 8.70703C15.319 8.09505 15.625 7.35938 15.625 6.5C15.625 5.64062 15.319 4.90495 14.707 4.29297C14.0951 3.68099 13.3594 3.375 12.5 3.375C11.6406 3.375 10.9049 3.68099 10.293 4.29297C9.68099 4.90495 9.375 5.64062 9.375 6.5C9.375 7.35938 9.68099 8.09505 10.293 8.70703C10.9049 9.31901 11.6406 9.625 12.5 9.625Z" fill="black"/>
</svg>
