<svg width="21" height="14" viewBox="0 0 21 14" fill="none" xmlns="http://www.w3.org/2000/svg">
<path d="M7.14542 13.0728L5.74542 11.6728L7.49542 9.87279C5.36208 9.58946 3.60375 9.00613 2.22042 8.12279C0.837083 7.23946 0.145416 6.22279 0.145416 5.07279C0.145416 3.68946 1.10792 2.51029 3.03292 1.53529C4.95792 0.560292 7.32875 0.0727921 10.1454 0.0727921C12.9621 0.0727921 15.3329 0.560292 17.2579 1.53529C19.1829 2.51029 20.1454 3.68946 20.1454 5.07279C20.1454 6.10613 19.5912 7.03113 18.4829 7.84779C17.3746 8.66446 15.9288 9.27279 14.1454 9.67279V7.62279C15.4288 7.28946 16.4163 6.87696 17.1079 6.38529C17.7996 5.89363 18.1454 5.45613 18.1454 5.07279C18.1454 4.53946 17.4329 3.90613 16.0079 3.17279C14.5829 2.43946 12.6287 2.07279 10.1454 2.07279C7.66208 2.07279 5.70792 2.43946 4.28292 3.17279C2.85792 3.90613 2.14542 4.53946 2.14542 5.07279C2.14542 5.47279 2.57042 5.95196 3.42042 6.51029C4.27042 7.06863 5.47875 7.48946 7.04542 7.77279L5.74542 6.47279L7.14542 5.07279L11.1454 9.07279L7.14542 13.0728Z" fill="white"/>
</svg>
