<?xml version="1.0" encoding="UTF-8"?>
<svg id="Layer_1" xmlns="http://www.w3.org/2000/svg" version="1.1" viewBox="0 0 21 14">
  <!-- Generator: Adobe Illustrator 29.0.0, SVG Export Plug-In . SVG Version: 2.1.0 Build 186)  -->
  <path d="M7.1,13.1l-1.4-1.4,1.8-1.8c-2.1-.3-3.9-.9-5.3-1.8C.8,7.2.1,6.2.1,5.1s1-2.6,2.9-3.5C5,.6,7.3,0,10.1,0s5.2.5,7.1,1.5c1.9,1,2.9,2.2,2.9,3.5s-.6,2-1.7,2.8c-1.1.8-2.6,1.4-4.3,1.8v-2c1.3-.3,2.3-.7,3-1.2.7-.5,1-.9,1-1.3s-.7-1.2-2.1-1.9c-1.4-.7-3.4-1.1-5.9-1.1s-4.4.4-5.9,1.1c-1.4.7-2.1,1.4-2.1,1.9s.4.9,1.3,1.4c.9.6,2.1,1,3.6,1.3l-1.3-1.3,1.4-1.4,4,4-4,4Z"/>
</svg>