<?xml version="1.0" encoding="UTF-8"?>
<svg id="Layer_1" xmlns="http://www.w3.org/2000/svg" version="1.1" viewBox="0 0 19 13">
  <!-- Generator: Adobe Illustrator 29.0.0, SVG Export Plug-In . SVG Version: 2.1.0 Build 186)  -->
  <path d="M7.3,9.2c1.4-1.3,3.5-1.3,4.9,0,0,0,.1.2.1.3,0,.1,0,.2-.1.3l-2.2,2.4c0,0-.2.1-.2.1,0,0-.2,0-.2-.1l-2.2-2.4c0,0-.1-.2-.1-.3,0-.1,0-.2.1-.3ZM4.2,6.4c3.1-2.8,8-2.8,11.1,0,0,0,.1.2.1.3,0,0,0,.2-.1.3l-1.3,1.3c-.1.1-.4.1-.5,0-1-.9-2.4-1.4-3.8-1.4-1.4,0-2.7.5-3.8,1.4-.1.1-.4.1-.5,0l-1.3-1.3c0,0-.1-.2-.1-.3,0,0,0-.2.1-.3ZM1.1,3.4C5.9-.9,13.6-.9,18.4,3.4c0,0,.1.2.1.2,0,0,0,.2-.1.2l-1.3,1.2c-.1.1-.4.1-.5,0-1.8-1.6-4.3-2.5-6.9-2.5-2.6,0-5,.9-6.9,2.5-.1.1-.4.1-.5,0l-1.3-1.2c0,0-.1-.2-.1-.2,0,0,0-.2.1-.2Z"/>
</svg>