<svg width="19" height="13" viewBox="0 0 19 13" fill="none" xmlns="http://www.w3.org/2000/svg">
<path d="M7.30091 9.23356C8.72632 7.94424 10.814 7.94422 12.2394 9.23356C12.311 9.30281 12.3525 9.40084 12.3546 9.50406C12.3566 9.60746 12.3191 9.70799 12.2501 9.78043L10.0177 12.1896C9.95229 12.2603 9.86265 12.3 9.76966 12.3C9.67685 12.2998 9.58789 12.2602 9.52259 12.1896L7.29017 9.78043C7.2212 9.70794 7.18265 9.60746 7.1847 9.50406C7.18684 9.40081 7.22923 9.30278 7.30091 9.23356ZM4.19544 6.36149C7.33723 3.52417 12.2031 3.52417 15.3449 6.36149C15.4156 6.428 15.4562 6.51976 15.4572 6.61539C15.458 6.7109 15.419 6.80248 15.3497 6.87028L14.0294 8.1652C13.8934 8.29742 13.6739 8.30076 13.5343 8.17203C12.5026 7.26503 11.1605 6.76278 9.76868 6.76285C8.37783 6.76341 7.037 7.26572 6.00599 8.17203C5.86644 8.30076 5.64592 8.29742 5.50989 8.1652L4.19056 6.87028C4.12112 6.80256 4.08231 6.71094 4.08314 6.61539C4.08407 6.51966 4.12453 6.42801 4.19544 6.36149ZM1.09193 3.42008C5.9433 -0.873503 13.597 -0.87352 18.4484 3.42008C18.5186 3.48387 18.5581 3.5713 18.5587 3.66227C18.5592 3.75315 18.5207 3.84094 18.4513 3.90543L17.1212 5.14469C16.9841 5.27193 16.7614 5.27386 16.6222 5.1486C14.7739 3.52576 12.321 2.62041 9.77064 2.62028C7.21999 2.62027 4.76671 3.52563 2.9181 5.1486C2.77899 5.27408 2.55607 5.27213 2.41907 5.14469L1.08802 3.90543C1.01873 3.84091 0.981014 3.75312 0.981574 3.66227C0.982222 3.5713 1.02165 3.48382 1.09193 3.42008Z" fill="white"/>
</svg>
